<?xml version="1.0" standalone="no"?>
<!DOCTYPE svg PUBLIC "-//W3C//DTD SVG 20010904//EN"
 "http://www.w3.org/TR/2001/REC-SVG-20010904/DTD/svg10.dtd">
<svg version="1.0" xmlns="http://www.w3.org/2000/svg"
 width="16.000000pt" height="16.000000pt" viewBox="0 0 16.000000 16.000000"
 preserveAspectRatio="xMidYMid meet">
<metadata>
Created by potrace 1.11, written by Peter Selinger 2001-2013
</metadata>
<g transform="translate(0.000000,16.000000) scale(0.006154,-0.006154)"
fill="#000000" stroke="none">
<path d="M1547 2552 c16 -26 180 -302 366 -613 l339 -564 146 0 c93 1 146 5
145 11 -1 6 -54 98 -119 205 -64 107 -128 215 -143 240 -14 25 -123 208 -241
407 l-215 361 -153 1 -152 0 27 -48z"/>
<path d="M74 2451 c-31 -6 -31 -5 -25 -132 l1 -26 735 1 c404 0 735 3 735 7 0
4 -18 39 -41 78 l-41 71 -126 0 c-70 0 -373 2 -673 3 -300 1 -554 0 -565 -2z"/>
<path d="M49 2118 c-1 -18 -1 -121 0 -135 1 -8 210 -11 827 -12 l826 -1 -20
33 c-11 17 -32 53 -47 80 l-27 47 -779 0 c-616 0 -779 -3 -780 -12z"/>
<path d="M48 1813 c-3 -7 -2 -108 1 -139 1 -8 262 -11 905 -11 823 0 904 2
898 16 -6 19 -25 51 -60 104 l-25 37 -858 0 c-472 0 -859 -3 -861 -7z"/>
<path d="M48 1503 c-3 -7 -3 -71 1 -129 l1 -22 995 1 995 1 -17 25 c-9 14 -32
50 -51 79 l-35 52 -943 0 c-518 0 -944 -3 -946 -7z"/>
<path d="M49 1241 c0 -3 -2 -255 -2 -559 l-2 -552 690 0 690 0 305 512 c168
281 317 532 333 558 l27 48 -1020 -1 c-561 0 -1020 -3 -1021 -6z"/>
<path d="M2256 1218 c-8 -5 -44 -59 -81 -121 -36 -61 -84 -141 -106 -176 -21
-34 -39 -65 -39 -67 0 -2 -15 -27 -32 -57 -18 -29 -38 -61 -45 -72 -200 -335
-389 -650 -408 -682 l-26 -43 153 0 153 0 105 177 c58 97 117 197 131 222 14
25 39 67 55 94 75 123 434 727 434 729 0 7 -282 3 -294 -4z"/>
</g>
</svg>
