<svg xmlns="http://www.w3.org/2000/svg" width="64" height="64" viewBox="0 0 64 64">
    <g fill="none" fill-rule="evenodd">
        <path fill="#000" fill-rule="nonzero" d="M60.931 15.957v31.66a4.96 4.96 0 0 1-4.957 4.957H7.956A4.96 4.96 0 0 1 3 47.617v-31.66A4.96 4.96 0 0 1 7.957 11h48.017a4.96 4.96 0 0 1 4.957 4.957zm-2 0A2.96 2.96 0 0 0 55.974 13H7.956A2.96 2.96 0 0 0 5 15.957v31.66a2.96 2.96 0 0 0 2.957 2.957h48.017a2.96 2.96 0 0 0 2.957-2.957v-31.66z"/>
        <path fill="#000" fill-rule="nonzero" d="M4 20.587a1 1 0 1 1 0-2h55.931a1 1 0 0 1 0 2H4z"/>
        <path fill="#FC0" fill-rule="nonzero" d="M8.965 26.228a1 1 0 0 1 0-2h17.98a1 1 0 0 1 0 2H8.964zM8.965 32.315a1 1 0 0 1 0-2h12.363a1 1 0 0 1 0 2H8.965zM8.965 44.488a1 1 0 0 1 0-2h12.363a1 1 0 0 1 0 2H8.965zM8.965 38.401a1 1 0 0 1 0-2H30.04a1 1 0 0 1 0 2H8.965zM34.965 45.655a1 1 0 0 1-1-1V25.228a1 1 0 0 1 1-1h20a1 1 0 0 1 1 1v19.427a1 1 0 0 1-1 1h-20zm19-2V26.228h-18v17.427h18z"/>
        <path fill="#FC0" fill-rule="nonzero" d="M35.654 39.81a1 1 0 0 1-1.377-1.451l5-4.749a1 1 0 0 1 1.373-.004l11 10.32a1 1 0 0 1-1.369 1.459L39.97 35.71l-4.316 4.1z"/>
        <path fill="#FC0" fill-rule="nonzero" d="M43.644 37.48a1 1 0 0 1-1.377-1.45l5-4.748a1 1 0 0 1 1.38.003l7.01 6.72a1 1 0 0 1-1.384 1.444l-6.32-6.06-4.309 4.092z"/>
        <path fill="#FC0" d="M40.383 28.54a1.625 1.625 0 1 1-.001 3.249 1.625 1.625 0 0 1 .001-3.25z"/>
    </g>
</svg>
