<svg xmlns="http://www.w3.org/2000/svg" width="64" height="64" viewBox="0 0 64 64">
    <g fill="none" fill-rule="evenodd">
        <path fill="#FFF" d="M18.945 41.568h23.798V14.621a2.995 2.995 0 0 0-2.994-2.994H7.494A2.995 2.995 0 0 0 4.5 14.621v23.953a2.996 2.996 0 0 0 2.994 2.994h4.379"/>
        <path fill="#000" fill-rule="nonzero" d="M41.725 40.55V14.621c0-1.09-.886-1.976-1.976-1.976H7.494c-1.09 0-1.976.886-1.976 1.976v23.953c0 1.09.886 1.976 1.976 1.976h4.379a1.018 1.018 0 1 1 0 2.037H7.494a4.014 4.014 0 0 1-4.012-4.013V14.621a4.014 4.014 0 0 1 4.012-4.012H39.75a4.014 4.014 0 0 1 4.012 4.012v26.947c0 .563-.455 1.019-1.018 1.019H18.945a1.018 1.018 0 1 1 0-2.037h22.78z"/>
        <path fill="#FFF" d="M48.677 41.568h-5.934V20.187h13.231l4.41 10.04v11.341H55.75"/>
        <path fill="#000" fill-rule="nonzero" d="M48.677 40.55a1.018 1.018 0 1 1 0 2.037h-5.934a1.018 1.018 0 0 1-1.018-1.019V20.187c0-.563.456-1.019 1.018-1.019h13.231c.404 0 .77.24.933.61l4.41 10.04c.057.13.086.269.086.41v11.34c0 .563-.456 1.019-1.018 1.019h-4.636a1.018 1.018 0 1 1 0-2.037h3.618V30.442l-4.057-9.237H43.76V40.55h4.916z"/>
        <path fill="#FFF" d="M55.75 28.534h-9.82V23.87h8.273z"/>
        <path fill="#FC0" fill-rule="nonzero" d="M53.468 24.888h-6.52v2.627h7.39l-.87-2.627zm2.281 4.664h-9.818a1.018 1.018 0 0 1-1.019-1.018V23.87c0-.562.456-1.018 1.019-1.018h8.272c.438 0 .828.281.966.698l1.547 4.663a1.018 1.018 0 0 1-.967 1.339z"/>
        <path fill="#000" fill-rule="nonzero" d="M15.41 39.05a2.52 2.52 0 0 0-2.52 2.518 2.52 2.52 0 0 0 2.52 2.518 2.52 2.52 0 0 0 2.517-2.518 2.52 2.52 0 0 0-2.518-2.518zm0-2.036a4.556 4.556 0 0 1 4.554 4.554 4.556 4.556 0 0 1-4.555 4.555 4.556 4.556 0 0 1-4.554-4.555 4.556 4.556 0 0 1 4.554-4.554zM52.213 39.05a2.52 2.52 0 0 0-2.518 2.518 2.52 2.52 0 0 0 2.518 2.518 2.52 2.52 0 0 0 2.518-2.518 2.52 2.52 0 0 0-2.518-2.518zm0-2.036a4.556 4.556 0 0 1 4.554 4.554 4.556 4.556 0 0 1-4.554 4.555 4.556 4.556 0 0 1-4.555-4.555 4.556 4.556 0 0 1 4.555-4.554z"/>
        <path fill="#FC0" fill-rule="nonzero" d="M35.773 18.15a1.018 1.018 0 1 1 0 2.037H21.518a1.018 1.018 0 1 1 0-2.037h14.255zM35.773 23.6a1.018 1.018 0 0 1 0 2.037H13.509a1.018 1.018 0 0 1 0-2.036h22.264z"/>
        <path fill="#000" fill-rule="nonzero" d="M13.51 53.158a1.018 1.018 0 0 1 0-2.037h37.865a1.018 1.018 0 0 1 0 2.037H13.51z"/>
    </g>
</svg>
