<svg xmlns="http://www.w3.org/2000/svg" width="48" height="48" viewBox="0 0 48 48">
    <path fill="#C02020" fill-rule="evenodd" d="M24 1c12.694 0 23 10.306 23 23S36.694 47 24 47 1 36.694 1 24 11.306 1 24 1zm-.018 20.194l6.273-6.273a2.005 2.005 0 0 1 1.275-.58c.11-.004.109-.004.22-.003.097.007.122.007.218.022a1.997 1.997 0 0 1 1.11 3.385l-6.237 6.237 6.22 6.065a2.001 2.001 0 0 1 .334 2.43 2 2 0 0 1-2.379.887 2.004 2.004 0 0 1-.578-.313c-.077-.06-.093-.079-.165-.145l-6.255-6.1-6.273 6.272a1.998 1.998 0 0 1-3.229-.585 2.008 2.008 0 0 1-.062-1.5c.074-.208.183-.402.32-.574.062-.077.08-.093.147-.164l6.238-6.237-6.22-6.065a2.01 2.01 0 0 1-.602-1.377 2.01 2.01 0 0 1 1.048-1.81c.194-.104.405-.176.622-.212.097-.016.121-.016.219-.024.11-.003.11-.003.22 0a1.99 1.99 0 0 1 1.282.564l6.254 6.1z"/>
</svg>
