<svg xmlns="http://www.w3.org/2000/svg" width="64" height="64" viewBox="0 0 64 64">
    <g fill="none" fill-rule="evenodd">
        <path fill="#FC0" fill-rule="nonzero" d="M49.709 42.509a1 1 0 1 1-2 0v-2.647a1 1 0 1 1 2 0v2.647zM52.314 42.557a1 1 0 0 1-2 0v-2.151a1 1 0 0 1 2 0v2.15zM54.918 42.557a1 1 0 1 1-2 0v-2.813a1 1 0 1 1 2 0v2.813z"/>
        <path fill="#000" fill-rule="nonzero" d="M23.656 8c-3.738 0-6.77 3.008-6.77 6.709 0 3.7 3.032 6.708 6.77 6.708 3.738 0 6.77-3.008 6.77-6.708S27.394 8 23.656 8zm0-2c4.839 0 8.77 3.9 8.77 8.709 0 4.808-3.931 8.708-8.77 8.708-4.84 0-8.77-3.9-8.77-8.708C14.885 9.9 18.815 6 23.655 6z"/>
        <path fill="#000" fill-rule="nonzero" d="M32.426 14.701a1 1 0 0 1-2 .015c0 .011-.006-.032-.029-.11a1.276 1.276 0 0 0-.27-.478c-.47-.538-1.402-.896-3.008-.896-.8 0-1.521.296-2.916 1.107-1.4.814-1.844 1.041-2.606 1.24-.249.065-.495.108-.74.127-.512.039-1.128.06-1.83.064a63.493 63.493 0 0 1-3.188-.062 1 1 0 1 1 .092-1.998 61.563 61.563 0 0 0 3.083.06 25.41 25.41 0 0 0 1.691-.058c.122-.01.25-.032.387-.068.512-.134.887-.326 2.106-1.034 1.691-.983 2.651-1.378 3.92-1.378 2.147 0 3.634.57 4.516 1.58.583.669.788 1.36.792 1.89zM8.71 28.456v.819a1 1 0 1 1-2 0v-.82c0-4.543 3.712-8.229 8.284-8.234a1 1 0 0 1 .897.555 8.659 8.659 0 0 0 7.765 4.797c3.33 0 6.32-1.886 7.765-4.797a1 1 0 0 1 .896-.555c4.6 0 8.284 3.655 8.284 8.162v.892a1 1 0 1 1-2 0v-.892c0-3.225-2.508-5.878-5.697-6.14a10.662 10.662 0 0 1-9.248 5.33c-3.87 0-7.37-2.072-9.245-5.325-3.197.296-5.7 2.967-5.7 6.208z"/>
        <path fill="#000" fill-rule="nonzero" d="M43.79 31.997V53.78c0 2.057-1.68 3.723-3.745 3.723h-33.3C4.679 57.503 3 55.837 3 53.78V31.997c0-2.056 1.68-3.722 3.745-3.722h33.3c2.065 0 3.745 1.666 3.745 3.722zm-2 0c0-.948-.78-1.722-1.745-1.722h-33.3c-.965 0-1.745.774-1.745 1.722V53.78c0 .949.78 1.723 1.745 1.723h33.3c.964 0 1.745-.774 1.745-1.723V31.997z"/>
        <path fill="#FC0" fill-rule="nonzero" d="M56.523 43.95a1 1 0 0 1 1 1v7.752c0 1.98-1.617 3.584-3.605 3.584h-5.21c-1.987 0-3.604-1.604-3.604-3.584V44.95a1 1 0 0 1 1-1h10.419zm-9.419 2v6.752c0 .872.718 1.584 1.605 1.584h5.21c.886 0 1.604-.712 1.604-1.584V45.95h-8.419z"/>
        <path fill="#FC0" fill-rule="nonzero" d="M56.523 49.259a1 1 0 1 1 0-2h2.431c.998 0 1.81.806 1.81 1.804v1.608c0 .997-.812 1.804-1.81 1.804h-2.431a1 1 0 1 1 0-2h2.242v-1.216h-2.242z"/>
        <path fill="#000" d="M23.656 41.219c.95 0 1.72.764 1.72 1.706s-.77 1.707-1.72 1.707-1.72-.765-1.72-1.707c0-.942.77-1.706 1.72-1.706z"/>
    </g>
</svg>
