<svg xmlns="http://www.w3.org/2000/svg" width="64" height="64" viewBox="0 0 64 64">
    <g fill="none" fill-rule="evenodd">
        <circle cx="32" cy="32" r="27" stroke="#000" stroke-width="2"/>
        <path fill="#000" fill-rule="nonzero" d="M42 30h-2.262c.164.638.262 1.308.262 2a8 8 0 1 1-16 0c0-.692.098-1.362.262-2H22v11A1 1 0 0 0 23 42h18a1 1 0 0 0 1-1V30zm0-7.001a1 1 0 0 0-1-1h-3a1 1 0 0 0-.999 1v3c0 .553.447 1 1 1H41a1 1 0 0 0 1-1v-3zm-10 4A5 5 0 0 0 27 32a5.001 5.001 0 1 0 5-5.001zM42 45H22a3 3 0 0 1-3-3V22a3 3 0 0 1 3-3h20a3 3 0 0 1 3 3v20a3 3 0 0 1-3 3z"/>
    </g>
</svg>
