<svg xmlns="http://www.w3.org/2000/svg" width="64" height="64" viewBox="0 0 64 64">
    <path fill="#231F20" fill-rule="nonzero" d="M20.626 43.375l2.828-2.829c5.214 5.214 10.554 9.2 15.687 12.05 1.91 1.061 3.689 1.904 5.239 2.517 1.107.437 2.016.718 2.291.758l.29.042c1.97.282 3.281-.086 5.543-2.347 3.414-3.415 3.678-4.469 2.3-5.847-1.66-1.659-5.927-4.496-9.153-6.36-.72-.416-1.199-.374-1.853.08-.556.388-.992.708-2.194 1.6-.66.49-1.012.75-1.386 1.02-1.994 1.444-4.34 1.68-6.544.284-2.46-1.562-5.052-3.589-7.741-6.275-2.69-2.69-4.722-5.29-6.277-7.744-1.394-2.2-1.158-4.548.286-6.542.27-.373.53-.726.975-1.326.937-1.262 1.256-1.698 1.644-2.254.454-.652.496-1.132.081-1.851-1.865-3.228-4.701-7.495-6.36-9.155-1.379-1.378-2.433-1.114-5.847 2.3-2.26 2.261-2.628 3.571-2.349 5.543l.042.29c.04.275.321 1.184.76 2.291.613 1.55 1.455 3.33 2.516 5.239 2.85 5.134 6.837 10.474 12.05 15.687l-2.828 2.829c-5.481-5.482-9.69-11.12-12.72-16.574-2.101-3.785-3.516-7.361-3.738-8.907l-.042-.293c-.447-3.154.275-5.728 3.48-8.933 4.774-4.773 8.178-5.626 11.504-2.3 1.993 1.993 4.953 6.446 6.998 9.985 1.224 2.127 1.039 4.263-.265 6.135-.42.603-.75 1.055-1.67 2.293-.48.647-.733.99-.991 1.347-.54.746-.6 1.34-.146 2.056 1.403 2.216 3.255 4.585 5.725 7.055 2.469 2.466 4.833 4.315 7.055 5.726.717.454 1.31.394 2.057-.146.356-.258.7-.511 1.287-.947 1.298-.964 1.75-1.295 2.352-1.714 1.874-1.306 4.01-1.491 6.139-.263 3.536 2.043 7.988 5.003 9.981 6.996 3.326 3.325 2.473 6.73-2.3 11.503-3.207 3.208-5.784 3.93-8.938 3.478l-.288-.042c-1.54-.218-5.12-1.633-8.906-3.736-5.453-3.028-11.093-7.238-16.574-12.72z"/>
</svg>
