<svg xmlns="http://www.w3.org/2000/svg" width="96" height="37" viewBox="0 0 96 37">
    <g fill="none" fill-rule="evenodd">
        <path fill="#FC0" d="M79.815 35.015H0l2.732-15.893h86.52l-9.437 15.893zm7.252-19.569l1.49 2.186H3.03l.397-2.186h83.64zm-2.335-4.37l1.39 2.185H3.726l.397-2.185h80.61zm-2.334-4.37l1.39 2.184H4.52l.397-2.185h77.48zm-2.434-4.67l1.341 2.335H5.215l.397-2.335h74.352z"/>
        <path fill="#000" d="M14.8 14.652c3.825 0 6.309 1.887 6.309 5.314 0 4.123-3.428 7.103-8.643 7.103h-2.185l-.844 4.271H5.364l2.88-16.688h6.557zm-1.39 8.89c2.086 0 3.576-1.39 3.576-3.03 0-1.39-1.093-2.185-2.732-2.185h-2.483l-.944 5.215h2.583zm11.523 7.947H20.96l2.036-11.92h3.973l-2.036 11.92zm-1.64-16.043c0-1.34 1.094-2.334 2.286-2.334 1.39 0 2.334.993 2.334 2.335 0 1.241-.944 2.185-2.334 2.185-1.192 0-2.285-.944-2.285-2.186zm25.331 9.189l-1.242 6.854H43.41l1.093-6.208c.298-1.739-.398-2.583-1.64-2.583-.695 0-1.39.298-2.036 1.093 0 .298 0 .546-.149.844l-1.092 6.854H35.61l.944-6.208c.397-1.739-.248-2.583-1.639-2.583-.546 0-1.242.397-1.887 1.093l-1.391 7.698h-3.973l2.036-11.92h3.973l-.099.695c.944-.695 1.887-1.142 3.129-1.142 1.49 0 2.732.596 3.427 1.689 1.49-1.093 2.732-1.69 4.52-1.69 2.88 0 4.52 2.087 3.973 5.514zm10.53-9.884c3.973 0 6.407 1.937 6.407 5.215 0 4.272-3.576 7.252-8.593 7.252h-2.334l-.695 4.271h-4.123l2.88-16.738h6.458zm-1.391 8.791c2.086 0 3.576-1.39 3.576-3.03 0-1.39-.944-2.036-2.632-2.036h-2.434l-.944 5.066h2.434zm19.966 7.947h-3.924l.1-.695c-.944.546-2.186.794-3.427.794-2.831 0-4.917-2.036-4.917-5.165 0-3.973 3.576-7.152 7.152-7.152 1.192 0 2.284.298 3.129.844v-.546h3.973l-2.086 11.92zm-3.278-4.122c-.795.844-1.738 1.092-2.583 1.092-1.39 0-2.334-1.092-2.334-2.483 0-1.887 1.49-3.526 3.427-3.526.844 0 1.64.248 2.185 1.192l-.695 3.725zm10.977 9.585h-4.222l3.278-5.463-3.576-11.92h4.222l2.086 7.102 4.37-7.102h4.222l-10.38 17.383zm10.38-19.568h-4.222L81.206 0h4.222l10.38 17.384z"/>
    </g>
</svg>
