<svg xmlns="http://www.w3.org/2000/svg" width="64" height="64" viewBox="0 0 64 64">
    <g fill="none" fill-rule="nonzero">
        <path fill="#FC0" d="M35.073 52.253a1 1 0 0 1 2 0v6.46a1 1 0 1 1-2 0v-6.46zM31.163 52.136a1 1 0 0 1 2 0v5.249a1 1 0 1 1-2 0v-5.249zM27.252 52.136a1 1 0 0 1 2 0V59a1 1 0 1 1-2 0v-6.864z"/>
        <path fill="#000" d="M21.287 25.25c0 2.438.346 4.935 1.009 7.375a1 1 0 0 1-.313 1.02 48.504 48.504 0 0 0-2.86 2.687l3.65 12.55c1.61-1.566 2.794-2.478 4.025-3.09a1 1 0 0 1 1.445.896v.512h8.355v-.512a1 1 0 0 1 1.445-.896c1.231.612 2.415 1.524 4.026 3.09l3.649-12.55a48.505 48.505 0 0 0-2.86-2.687 1 1 0 0 1-.312-1.02 28.258 28.258 0 0 0 1.008-7.375c0-8.652-4.445-15.786-11.133-19.138-6.689 3.352-11.134 10.486-11.134 19.138zm-2 0c0-9.611 5.084-17.567 12.708-21.155a1 1 0 0 1 .852 0C40.47 7.683 45.554 15.64 45.554 25.25c0 2.415-.315 4.877-.92 7.29.935.83 1.901 1.76 2.924 2.813a1 1 0 0 1 .244.976l-4.285 14.736a1 1 0 0 1-1.677.418c-1.36-1.399-2.384-2.35-3.278-3.017a1 1 0 0 1-.964.734H27.243a1 1 0 0 1-.964-.734c-.893.667-1.917 1.618-3.277 3.017a1 1 0 0 1-1.678-.418L17.04 36.33a1 1 0 0 1 .243-.976 54.91 54.91 0 0 1 2.924-2.812 30.103 30.103 0 0 1-.92-7.291z"/>
        <path fill="#000" d="M32.42 17.891a3.172 3.172 0 0 0 0 6.344 3.172 3.172 0 0 0 0-6.344zm0-2a5.172 5.172 0 0 1 0 10.344 5.172 5.172 0 0 1 0-10.344z"/>
        <path fill="#FC0" d="M28.182 27.568a5.991 5.991 0 0 0 8.477 0c.942-.943 2.357.47 1.415 1.414a7.991 7.991 0 0 1-11.306 0c-.943-.944.472-2.357 1.414-1.414z"/>
    </g>
</svg>
