<svg xmlns="http://www.w3.org/2000/svg" width="64" height="64" viewBox="0 0 64 64">
    <g fill="none" fill-rule="evenodd">
        <path fill="#000" fill-rule="nonzero" d="M10.03 11a.862.862 0 0 1 1.724 0v41.706a.862.862 0 0 1-1.723 0V11z"/>
        <path fill="#000" fill-rule="nonzero" d="M49.137 48.416a.862.862 0 0 1 0 1.723H7.783a.862.862 0 0 1 0-1.723h41.354z"/>
        <path fill="#FC0" fill-rule="nonzero" d="M3.318 23.232a.862.862 0 1 1 1.364-1.053c.045.058.139.175.278.343a30.282 30.282 0 0 0 3.846 3.805c3.097 2.549 6.283 4.073 9.348 4.089 1.79.009 3.436-.595 5.448-1.884.608-.39 1.234-.828 2.086-1.454-.17.124 1.704-1.26 2.24-1.645 4.9-3.525 8.93-5.209 14.625-5.303 5.145-.085 9.555.862 13.22 2.496a21.474 21.474 0 0 1 3.189 1.74c.544.364.915.654 1.115.831a.862.862 0 0 1-1.148 1.286 9.335 9.335 0 0 0-.925-.685A19.76 19.76 0 0 0 55.07 24.2c-3.44-1.535-7.602-2.428-12.49-2.347-5.288.087-9.006 1.64-13.648 4.98-.524.376-2.387 1.753-2.225 1.634a41.376 41.376 0 0 1-2.177 1.516c-2.268 1.453-4.215 2.167-6.386 2.156-3.535-.019-7.06-1.704-10.434-4.482a31.988 31.988 0 0 1-4.073-4.03 14.399 14.399 0 0 1-.32-.395z"/>
        <path fill="#FFF" d="M34.075 20.986c1.003 0 1.817.81 1.817 1.808s-.814 1.808-1.817 1.808a1.813 1.813 0 0 1-1.817-1.808c0-.998.814-1.808 1.817-1.808z"/>
        <path fill="#FC0" fill-rule="nonzero" d="M34.075 21.848a.952.952 0 0 0-.956.946c0 .521.428.947.956.947a.952.952 0 0 0 .956-.947.952.952 0 0 0-.956-.946zm0-1.723a2.675 2.675 0 0 1 2.679 2.67c0 1.474-1.201 2.669-2.679 2.669a2.675 2.675 0 0 1-2.679-2.67c0-1.474 1.201-2.67 2.679-2.67z"/>
        <path fill="#FFF" d="M18.231 29.458c1.003 0 1.818.81 1.818 1.808s-.815 1.808-1.818 1.808a1.813 1.813 0 0 1-1.817-1.808c0-.998.815-1.808 1.817-1.808z"/>
        <path fill="#FC0" fill-rule="nonzero" d="M18.231 30.32a.952.952 0 0 0-.955.946c0 .52.427.946.955.946a.952.952 0 0 0 .956-.946.952.952 0 0 0-.956-.946zm0-1.723a2.675 2.675 0 0 1 2.68 2.669c0 1.475-1.202 2.67-2.68 2.67a2.675 2.675 0 0 1-2.678-2.67 2.675 2.675 0 0 1 2.678-2.67z"/>
        <path fill="#FFF" d="M52.035 20.572c1.003 0 1.817.81 1.817 1.808s-.814 1.808-1.817 1.808a1.813 1.813 0 0 1-1.817-1.808c0-.998.814-1.808 1.817-1.808z"/>
        <path fill="#FC0" fill-rule="nonzero" d="M52.035 21.434a.952.952 0 0 0-.956.946c0 .52.428.946.956.946a.952.952 0 0 0 .956-.946.952.952 0 0 0-.956-.946zm0-1.724a2.675 2.675 0 0 1 2.679 2.67 2.675 2.675 0 0 1-2.68 2.67 2.675 2.675 0 0 1-2.678-2.67c0-1.475 1.201-2.67 2.679-2.67z"/>
    </g>
</svg>
