<svg xmlns="http://www.w3.org/2000/svg" width="48" height="48" viewBox="0 0 48 48">
    <g fill="none" fill-rule="evenodd">
        <path fill="#26B200" d="M24 1c12.694 0 23 10.306 23 23S36.694 47 24 47 1 36.694 1 24 11.306 1 24 1z"/>
        <path fill="#FFF" d="M34.07 16.759c.106.009.133.009.238.028a1.915 1.915 0 0 1 1.446 2.576 1.92 1.92 0 0 1-.38.61c-.073.078-.094.094-.174.166L22.355 30.954c-.084.067-.104.085-.195.144a1.91 1.91 0 0 1-1.863.12 2.17 2.17 0 0 1-.409-.263L13.06 25.22c-.08-.072-.102-.088-.174-.166a1.924 1.924 0 0 1-.507-1.196 1.92 1.92 0 0 1 2.048-2.018 1.925 1.925 0 0 1 1.098.444l5.595 4.7 11.611-9.777.094-.074c.089-.061.11-.079.203-.131a1.917 1.917 0 0 1 .921-.245l.12.003z"/>
    </g>
</svg>
