<svg xmlns="http://www.w3.org/2000/svg" width="64" height="64" viewBox="0 0 64 64">
    <g fill="none" fill-rule="evenodd">
        <circle cx="32" cy="32" r="27" stroke="#000" stroke-width="2"/>
        <path fill="#000" fill-rule="nonzero" d="M31.189 40.928s-3.825.236-7.193-3.367c-3.674-3.93-6.918-11.73-6.918-11.73s-.186-.51.017-.757c.229-.279.85-.296.85-.296l4.144-.028s.39.067.67.278c.23.174.359.499.359.499s.67 1.74 1.556 3.316c1.731 3.073 2.538 3.745 3.125 3.415.857-.479.6-4.344.6-4.344s.016-1.403-.431-2.027c-.347-.485-.998-.626-1.287-.665-.234-.032.15-.588.645-.838.746-.375 2.063-.397 3.62-.38 1.212.012 1.56.09 2.034.208 1.428.354.944 1.723.944 5.007 0 1.05-.184 2.53.554 3.02.317.211 1.094.031 3.036-3.357.92-1.606 1.61-3.493 1.61-3.493s.15-.337.384-.48c.24-.149.564-.104.564-.104l4.36-.027s1.31-.16 1.523.447c.222.639-.49 2.128-2.272 4.567-2.924 4.007-3.25 3.632-.822 5.948 2.321 2.213 2.801 3.29 2.88 3.424.961 1.636-1.065 1.764-1.065 1.764l-3.874.056s-.832.169-1.927-.603c-1.448-1.022-2.814-3.679-3.879-3.332-1.08.353-1.044 2.742-1.044 2.742s.007.51-.239.783c-.268.296-.79.354-.79.354h-1.734"/>
    </g>
</svg>
