<svg xmlns="http://www.w3.org/2000/svg" width="64" height="64" viewBox="0 0 64 64">
    <g fill="none" fill-rule="evenodd">
        <circle cx="32" cy="32" r="27" stroke="#000" stroke-width="2"/>
        <path fill="#000" fill-rule="nonzero" d="M25.617 23.456L23.667 17h1.65l1.065 4.275h.106L27.5 17h1.666l-1.91 6.256v4.44h-1.639v-4.24zm3.474-1.847c0-.61.197-1.098.59-1.46.39-.363.918-.544 1.58-.544.603 0 1.097.191 1.482.572.385.383.578.876.578 1.476v4.074c0 .677-.19 1.208-.568 1.59-.379.383-.897.577-1.559.577-.636 0-1.147-.197-1.529-.596-.381-.395-.574-.929-.574-1.6v-4.09zm1.498 4.238c0 .218.052.385.158.503.103.118.25.177.443.177a.629.629 0 0 0 .472-.181c.115-.122.173-.287.173-.499V21.55a.538.538 0 0 0-.177-.419.68.68 0 0 0-.468-.156.604.604 0 0 0-.433.156.56.56 0 0 0-.168.419v4.298zm4.982 1.964c.275 0 .557-.088.847-.253.29-.167.57-.414.837-.734v.872h1.457v-7.892h-1.457v5.99a2.035 2.035 0 0 1-.45.424c-.164.111-.3.165-.406.165-.138 0-.237-.04-.296-.124-.062-.084-.09-.218-.09-.406v-6.049h-1.457V26.4c0 .471.085.822.257 1.057.169.234.422.354.758.354zm-1.044 8.507a.643.643 0 0 0-.306.08c-.103.052-.205.13-.302.239v4.916c.118.129.232.222.344.278a.764.764 0 0 0 .353.085c.178 0 .31-.055.39-.166.087-.111.129-.291.129-.543v-4.074c0-.268-.053-.468-.156-.606-.103-.14-.256-.209-.452-.209zm5.352.03c-.23 0-.397.07-.499.214-.099.143-.15.378-.15.712v.798h1.286v-.798c0-.334-.05-.57-.152-.712-.1-.144-.262-.213-.485-.213zM44 37.86a59.382 59.382 0 0 1-.16 4.53 3.46 3.46 0 0 1-3.467 3.45c-2.733.116-5.525.166-8.373.16-2.85.006-5.644-.044-8.374-.16a3.46 3.46 0 0 1-3.465-3.45 56.044 56.044 0 0 1-.16-4.53 56.032 56.032 0 0 1 .16-4.528 3.459 3.459 0 0 1 3.465-3.45c2.596-.107 5.248-.162 7.95-.162h.846c2.704 0 5.356.055 7.95.162a3.46 3.46 0 0 1 3.468 3.45c.113 1.512.164 3.02.16 4.528zm-18.804-3.947h1.696v-1.554h-5.032v1.554h1.695v9.143h1.641v-9.143zm5.834 1.252h-1.456v5.989a2.06 2.06 0 0 1-.45.425c-.165.11-.301.165-.407.165-.138 0-.235-.041-.296-.125-.062-.083-.092-.218-.092-.406v-6.048h-1.456v6.596c0 .468.086.823.256 1.058.171.233.424.351.76.351.274 0 .556-.085.847-.25.29-.168.568-.414.838-.734v.87h1.456v-7.89zm5.603 1.88c0-.645-.12-1.136-.363-1.474-.245-.335-.595-.505-1.055-.505-.225 0-.45.063-.67.19a2.242 2.242 0 0 0-.625.547v-3.444h-1.47v10.697h1.47v-.608c.192.243.399.419.621.534.223.116.476.174.762.174.43 0 .76-.15.99-.447.228-.298.34-.728.34-1.288v-4.377zm5.383.239c0-.747-.18-1.32-.537-1.72-.357-.399-.868-.598-1.534-.598-.652 0-1.184.216-1.598.645-.411.434-.615.99-.615 1.673v3.543c0 .76.187 1.36.561 1.791.376.434.889.65 1.54.65.724 0 1.27-.203 1.635-.612.365-.41.548-1.02.548-1.83v-.59h-1.499v.548c0 .466-.048.763-.144.9-.095.135-.267.204-.506.204-.234 0-.395-.079-.491-.24-.1-.16-.145-.45-.145-.864v-1.488h2.785v-2.012z"/>
    </g>
</svg>
